
        <svg xmlns="http://www.w3.org/2000/svg" xmlns:xlink="http://www.w3.org/1999/xlink" version="1.1" width="3162.2997772356" 
        height="440.7073757245545" viewBox="0 0 3162.2997772356 440.7073757245545">
			
			<g transform="scale(8.114988861779993) translate(10, 10)">
				<defs id="SvgjsDefs4550"><linearGradient id="SvgjsLinearGradient4555"><stop id="SvgjsStop4556" stop-color="#6d7cff" offset="0"></stop><stop id="SvgjsStop4557" stop-color="#ff51ff" offset="1"></stop></linearGradient></defs><g id="SvgjsG4551" featureKey="MI9fam-0" transform="matrix(0.13422971932407454,0,0,0.13422971932407454,-8.868836067662285,-8.797143519055403)" fill="url(#SvgjsLinearGradient4555)"><path xmlns="http://www.w3.org/2000/svg" fill="url(#SvgjsLinearGradient4555)" xmlns:a="http://ns.adobe.com/AdobeSVGViewerExtensions/3.0/" a:adobe-knockout="false" d="M97.525,109.331l2.974-3.296c6.748-6.807,7.151-7.214,11.826-11.134     c2.631-2.064,6.17-4.778,8.888-6.729c17.951-12.38,42.964-21.189,67.617-22.474c3.697-0.192,7.256-0.209,10.661-0.063l0.95,0.046     c8.825,0.689,9.354,0.73,14.713,1.614c9.464,1.888,10.028,1.998,15.655,3.674c-9.965-3.006-22.103-4.361-35.867-3.644     C156.394,69.335,117.094,86.968,97.525,109.331"></path><path xmlns="http://www.w3.org/2000/svg" fill="url(#SvgjsLinearGradient4555)" xmlns:a="http://ns.adobe.com/AdobeSVGViewerExtensions/3.0/" a:adobe-knockout="false" d="M69.501,163.724l2.021-7.443c1.329-3.848,3.1-8.986,4.63-12.758l0.674-1.56     c15.141-34.348,71.952-64.401,127.459-67.293c26.144-1.362,47.364,3.542,61.044,12.691l6.584,4.746     c3.434,2.851,7.979,6.698,11.24,9.745C269.246,88.4,243.377,80.768,210.153,82.5c-60.384,3.147-122.196,36.038-138.062,73.462     C70.973,158.602,70.113,161.189,69.501,163.724"></path><path xmlns="http://www.w3.org/2000/svg" fill="url(#SvgjsLinearGradient4555)" xmlns:a="http://ns.adobe.com/AdobeSVGViewerExtensions/3.0/" a:adobe-knockout="false" d="M68.891,220.21c-0.813-4.66-1.851-10.889-2.375-15.59l-0.419-6.647     c-0.224-6.202,1.058-12.827,3.997-19.76c17.07-40.266,83.574-75.653,148.543-79.04c42.602-2.219,73.965,9.873,85.695,29.813     c6.049,11.404,6.541,12.336,9.576,20.417c-8.801-23.918-42.652-38.976-90.279-36.495     c-66.251,3.452-134.069,39.539-151.476,80.601C68.094,203.082,67.135,212.081,68.891,220.21"></path><path xmlns="http://www.w3.org/2000/svg" fill="url(#SvgjsLinearGradient4555)" xmlns:a="http://ns.adobe.com/AdobeSVGViewerExtensions/3.0/" a:adobe-knockout="false" d="M92.813,271.626c-7.364-10.301-7.965-11.143-11.981-18.586     c-5.477-10.262-5.922-22.479-0.262-35.826c17.182-40.531,84.125-76.154,149.522-79.56c53.184-2.772,88.967,16.613,91.234,45.75     c0.137,3.502,0.402,8.168,0.379,11.67c-0.17,3.192-0.287,7.455-0.592,10.637c3.164-31.788-32.625-53.73-87.91-50.85     c-63.073,3.286-127.639,37.642-144.21,76.733C82.489,246.935,84.344,260.728,92.813,271.626"></path><path xmlns="http://www.w3.org/2000/svg" fill="url(#SvgjsLinearGradient4555)" xmlns:a="http://ns.adobe.com/AdobeSVGViewerExtensions/3.0/" a:adobe-knockout="false" d="M138.141,308.339l-1.272-0.625c-9.498-5.146-11.208-6.073-19.119-11.712     c-14.395-10.624-19.502-26.277-11.865-44.292c14.988-35.355,73.379-66.426,130.423-69.398     c56.316-2.934,90.262,22.611,76.697,57.281l-1.432,3.529c-5.064,10.84-5.369,11.489-9.361,17.986     c1.588-2.523,2.938-5.081,4.035-7.666c13.582-32.041-17.316-55.833-69.018-53.139c-51.698,2.695-104.621,30.854-118.205,62.897     C110.784,282.642,118.919,299.047,138.141,308.339"></path><path xmlns="http://www.w3.org/2000/svg" fill="url(#SvgjsLinearGradient4555)" xmlns:a="http://ns.adobe.com/AdobeSVGViewerExtensions/3.0/" a:adobe-knockout="false" d="M203.519,320.49c33.849-1.764,68.495-20.201,77.39-41.179     c8.895-20.979-11.336-36.553-45.184-34.789c-33.849,1.764-68.497,20.201-77.391,41.179     C149.441,306.679,169.671,322.255,203.519,320.49c-0.983,0.257-1.973,0.411-2.967,0.463c-8.32,0.227-8.646,0.237-13.268,0.01     c-2.216-0.176-5.176-0.358-7.385-0.594c-30.642-3.323-47.16-20.407-37.89-42.273c10.914-25.743,53.429-48.367,94.965-50.532     c41.535-2.164,66.359,16.951,55.445,42.693c-3.455,8.148-10.078,15.985-18.83,22.959c-2.738,2.07-6.428,4.782-9.254,6.727     c-6.793,4.263-6.793,4.263-10.469,6.225c-6.666,3.362-6.666,3.362-10.117,4.828c-6.504,2.603-6.504,2.603-10.041,3.775     c-3.322,1.016-9.504,2.903-10.275,2.903c-6.993,1.504-7.267,1.562-10.89,2.09c-7.553,0.933-7.848,0.971-11.992,1.189     C201.546,320.901,202.535,320.747,203.519,320.49"></path><path xmlns="http://www.w3.org/2000/svg" fill="url(#SvgjsLinearGradient4555)" xmlns:a="http://ns.adobe.com/AdobeSVGViewerExtensions/3.0/" a:adobe-knockout="false" d="M218.023,308.125c11.248-0.586,22.766-6.713,25.721-13.686     s-3.768-12.148-15.018-11.562c-11.25,0.587-22.767,6.714-25.722,13.687C200.049,303.535,206.772,308.712,218.023,308.125     c-1.771,2.74-3.607,5.031-5.493,6.887c-20.602,1.075-32.915-8.405-27.502-21.174c5.414-12.769,26.502-23.991,47.104-25.065     c20.602-1.072,32.916,8.407,27.502,21.176c-5.412,12.769-26.502,23.99-47.104,25.063     C214.416,313.156,216.253,310.865,218.023,308.125"></path></g><g id="SvgjsG4552" featureKey="EI8VXn-0" transform="matrix(1.2595408182025762,0,0,1.2595408182025762,52.639721687909756,0.41756189606086824)" fill="#ffffff"><path d="M8.24 19.8 c-0.13334 0.13334 -0.30668 0.20004 -0.52002 0.20004 l-6.36 0 c-0.08 0 -0.14666 -0.03 -0.2 -0.09 s-0.08 -0.13 -0.08 -0.21 l0 -13.38 c0 -0.18666 0.09334 -0.28 0.28 -0.28 l6.36 0 c0.05334 0 0.12668 0.01 0.22002 0.03 s0.19334 0.08334 0.3 0.19 l1.12 1.12 c0.14666 0.14666 0.22 0.32 0.22 0.52 l0 3.62 c0 0.10666 -0.01 0.19332 -0.03 0.25998 s-0.08334 0.15332 -0.19 0.25998 l-0.78 0.78 l0.78 0.8 c0.10666 0.12 0.17 0.22 0.19 0.3 s0.03 0.15334 0.03 0.22 l0 4 c0 0.12 -0.02 0.22 -0.06 0.3 s-0.09334 0.15334 -0.16 0.22 z M7.1 17.22 c0.05334 -0.05334 0.08 -0.10666 0.08 -0.16 l0 -2.5 l-0.06 -0.1 l-0.34 -0.34 c-0.04 -0.04 -0.09334 -0.06 -0.16 -0.06 l-3.14 0 l0 3.52 l3.14 0 c0.04 0 0.09334 -0.02 0.16 -0.06 z M7.12 11.28 c0.04 -0.04 0.06 -0.08666 0.06 -0.14 l0 -2.28 c0 -0.05334 -0.02 -0.1 -0.06 -0.14 l-0.28 -0.28 l-3.36 0 l0 3.22 l3.18 0 c0.04 0 0.08 -0.02 0.12 -0.06 z M20.357999999999997 19.8 c-0.06666 0.06666 -0.14664 0.11666 -0.23998 0.15 s-0.18668 0.05 -0.28002 0.05 l-5.16 0 c-0.08 0 -0.17 -0.01666 -0.27 -0.05 s-0.18334 -0.08334 -0.25 -0.15 l-1.14 -1.14 c-0.10666 -0.10666 -0.16666 -0.2 -0.18 -0.28 s-0.02 -0.16 -0.02 -0.24 l0 -11.82 c0 -0.18666 0.09334 -0.28 0.28 -0.28 l1.84 0 c0.18666 0 0.28 0.09334 0.28 0.28 l0 10.86 c0 0.05334 0.02 0.1 0.06 0.14 l0.28 0.28 l3.4 0 l0.28 -0.28 c0.04 -0.04 0.06 -0.08666 0.06 -0.14 l0 -10.86 c0 -0.18666 0.09334 -0.28 0.28 -0.28 l1.84 0 c0.06666 0 0.13 0.02666 0.19 0.08 s0.09 0.12 0.09 0.2 l0 11.82 c0 0.06666 -0.01666 0.15 -0.05 0.25 s-0.09 0.19 -0.17 0.27 z M32.076 20 c-0.08 0 -0.15334 -0.03 -0.22 -0.09 s-0.11332 -0.12334 -0.13998 -0.19 l-1.98 -4.86 l-2.24 0 l0 4.86 c0 0.18666 -0.09334 0.28 -0.28 0.28 l-1.84 0 c-0.18666 0 -0.28 -0.09334 -0.28 -0.28 l0 -13.4 c0 -0.18666 0.09334 -0.28 0.28 -0.28 l6.36 0 c0.05334 0 0.10668 0.0066602 0.16002 0.02 s0.11 0.03 0.17 0.05 s0.12334 0.06334 0.19 0.13 l1.12 1.12 c0.10666 0.10666 0.17332 0.22666 0.19998 0.36 c0.01334 0.05334 0.02 0.10668 0.02 0.16002 l0 5.08 c0 0.24 -0.07334 0.43334 -0.22 0.58 l-1.18 1.18 l2.02 4.98 c0.02666 0.06666 0.02332 0.13332 -0.01002 0.19998 s-0.11 0.1 -0.23 0.1 l-1.9 0 z M31.116 12.08 c0.04 -0.04 0.05998 -0.08666 0.05998 -0.14 l0 -3.02 c0 -0.04 -0.01334 -0.07334 -0.04 -0.1 l-0.34 -0.32 c-0.06666 -0.04 -0.11332 -0.06 -0.13998 -0.06 l-3.16 0 l0 4.02 l3.16 0 c0.05334 0 0.1 -0.02 0.14 -0.06 z M39.534 20 c-0.06666 0 -0.12334 -0.02336 -0.17 -0.07002 s-0.07 -0.10332 -0.07 -0.16998 l0 -11.32 l-2.8 0 c-0.18666 0 -0.28 -0.09334 -0.28 -0.28 l0 -1.84 c0 -0.18666 0.09334 -0.28 0.28 -0.28 l8.02 0 c0.06666 0 0.13 0.02666 0.19 0.08 s0.09 0.12 0.09 0.2 l0 1.84 c0 0.08 -0.03 0.14666 -0.09 0.2 s-0.12334 0.08 -0.19 0.08 l-2.82 0 l0 11.32 c0 0.16 -0.07334 0.24 -0.22 0.24 l-1.94 0 z M61.07000000000001 19.8 c-0.08 0.08 -0.16666 0.13338 -0.26 0.16004 s-0.18 0.04 -0.26 0.04 l-5.16 0 c-0.14666 0 -0.25 -0.01666 -0.31 -0.05 s-0.13 -0.09 -0.21 -0.17 l-1.14 -1.12 c-0.09334 -0.09334 -0.15 -0.17668 -0.17 -0.25002 s-0.03 -0.14334 -0.03 -0.21 l0 -2.04 c0 -0.06666 0.02666 -0.13 0.08 -0.19 s0.12 -0.09 0.2 -0.09 l1.84 0 c0.08 0 0.14666 0.03 0.2 0.09 s0.08 0.12334 0.08 0.19 l0 1.44 l3.58 0 c0.02666 0 0.06 -0.02 0.1 -0.06 l0.34 -0.32 c0.04 -0.02666 0.06 -0.07332 0.06 -0.13998 l0 -2.34 c0 -0.05334 -0.02 -0.1 -0.06 -0.14 l-0.32 -0.32 c-0.04 -0.04 -0.08666 -0.06 -0.14 -0.06 l-4.16 0 c-0.04 0 -0.10334 -0.01334 -0.19 -0.04 s-0.17666 -0.08666 -0.27 -0.18 l-1.14 -1.12 c-0.08 -0.08 -0.13334 -0.16334 -0.16 -0.25 s-0.04 -0.17 -0.04 -0.25 l0 -4.5 c0 -0.06666 0.01334 -0.14666 0.04 -0.24 s0.08666 -0.18668 0.18 -0.28002 l1.12 -1.12 c0.06666 -0.06666 0.13 -0.11666 0.19 -0.15 s0.17 -0.05 0.33 -0.05 l5.16 0 c0.08 0 0.17 0.01666 0.27 0.05 s0.18334 0.08334 0.25 0.15 l1.12 1.12 c0.10666 0.12 0.17 0.21666 0.19 0.29 s0.03 0.15 0.03 0.23 l0 2.1 c0 0.18666 -0.09334 0.28 -0.28 0.28 l-1.84 0 c-0.18666 0 -0.28 -0.09334 -0.28 -0.28 l0 -1.54 l-3.52 0 c-0.05334 0 -0.10668 0.02 -0.16002 0.06 l-0.34 0.32 c-0.04 0.02666 -0.06 0.07332 -0.06 0.13998 l0 2.32 c0 0.05334 0.02 0.1 0.06 0.14 l0.34 0.34 c0.04 0.04 0.09334 0.06 0.16 0.06 l4.06 0 c0.21334 0 0.38668 0.06666 0.52002 0.2 l1.12 1.12 c0.14666 0.16 0.22 0.33334 0.22 0.52 l0 4.48 c0 0.2 -0.07334 0.37334 -0.22 0.52 z M73.18799999999999 19.8 c-0.13334 0.13334 -0.36 0.20002 -0.68 0.20002 l-5.06 0 c-0.04 0 -0.10334 -0.01 -0.19 -0.03 s-0.17666 -0.07666 -0.27 -0.17 l-1.14 -1.14 c-0.09334 -0.09334 -0.15 -0.18334 -0.17 -0.27 s-0.03 -0.15 -0.03 -0.19 l0 -10.36 c0 -0.05334 0.01 -0.12334 0.03 -0.21 s0.07666 -0.17666 0.17 -0.27 l1.14 -1.12 c0.08 -0.08 0.15666 -0.13334 0.23 -0.16 s0.17 -0.04 0.29 -0.04 l5.16 0 c0.08 0 0.16666 0.01334 0.26 0.04 s0.18 0.08 0.26 0.16 l1.12 1.12 c0.06666 0.06666 0.12 0.14332 0.16 0.22998 s0.06 0.18332 0.06 0.28998 l0 10.26 c0 0.13334 -0.02 0.23668 -0.06 0.31002 s-0.09334 0.14334 -0.16 0.21 z M72.068 17.32 c0.04 -0.04 0.05998 -0.08668 0.05998 -0.14002 l0 -8.22 c0 -0.01334 -0.0033398 -0.03334 -0.01 -0.06 s-0.02332 -0.05332 -0.04998 -0.07998 l-0.34 -0.32 c-0.04 -0.04 -0.08 -0.06 -0.12 -0.06 l-3.02 0 c-0.05334 0 -0.1 0.02 -0.14 0.06 l-0.34 0.32 c-0.04 0.04 -0.06 0.08666 -0.06 0.14 l0 8.22 c0 0.05334 0.02 0.1 0.06 0.14 l0.28 0.28 l3.4 0 z M78.18599999999999 20 c-0.18666 0 -0.28 -0.09334 -0.28 -0.28 l0 -13.4 c0 -0.18666 0.09334 -0.28 0.28 -0.28 l7.26 0 c0.18666 0 0.28 0.09334 0.28 0.28 l0 1.84 c0 0.05334 -0.02 0.11334 -0.06 0.18 s-0.09334 0.1 -0.16 0.1 l-5.2 0 l0 3.38 l4.08 0 c0.18666 0 0.28 0.09334 0.28 0.28 l0 1.84 c0 0.18666 -0.09334 0.28 -0.28 0.28 l-4.08 0 l0 5.5 c0 0.18666 -0.09334 0.28 -0.28 0.28 l-1.84 0 z M91.264 20 c-0.06666 0 -0.12334 -0.02336 -0.17 -0.07002 s-0.07 -0.10332 -0.07 -0.16998 l0 -11.32 l-2.8 0 c-0.18666 0 -0.28 -0.09334 -0.28 -0.28 l0 -1.84 c0 -0.18666 0.09334 -0.28 0.28 -0.28 l8.02 0 c0.06666 0 0.13 0.02666 0.19 0.08 s0.09 0.12 0.09 0.2 l0 1.84 c0 0.08 -0.03 0.14666 -0.09 0.2 s-0.12334 0.08 -0.19 0.08 l-2.82 0 l0 11.32 c0 0.16 -0.07334 0.24 -0.22 0.24 l-1.94 0 z M106.982 20 c-0.14666 0 -0.24664 -0.09334 -0.29998 -0.28 l-2.14 -6.2 l-2.14 6.2 c-0.05334 0.18666 -0.14668 0.28 -0.28002 0.28 l-1.98 0 c-0.06666 0 -0.12332 -0.03 -0.16998 -0.09 s-0.07666 -0.12334 -0.09 -0.19 l-1.06 -13.4 c0 -0.18666 0.09334 -0.28 0.28 -0.28 l1.84 0 c0.18666 0 0.28 0.09334 0.28 0.28 l0.56 8.44 l1.6 -4.16 c0.06666 -0.18666 0.18666 -0.28 0.36 -0.28 l1.6 0 c0.18666 0 0.31332 0.09334 0.37998 0.28 l1.6 4.16 l0.56 -8.44 c0 -0.18666 0.09334 -0.28 0.28 -0.28 l1.84 0 c0.06666 0 0.13 0.02666 0.19 0.08 s0.09 0.12 0.09 0.2 l-1.08 13.4 c0 0.06666 -0.02334 0.13 -0.07 0.19 s-0.11 0.09 -0.19 0.09 l-1.96 0 z M121.17999999999999 20 c-0.08 0 -0.15664 -0.03002 -0.22998 -0.09002 s-0.12334 -0.13 -0.15 -0.21 l-0.78 -2.68 l-4.46 0 l-0.78 2.68 c-0.02666 0.08 -0.07666 0.15 -0.15 0.21 s-0.15 0.09 -0.23 0.09 l-1.74 0 c-0.08 0 -0.15666 -0.03 -0.23 -0.09 s-0.09668 -0.13 -0.07002 -0.21 l3.96 -13.38 c0.02666 -0.06666 0.06 -0.13332 0.1 -0.19998 s0.1 -0.1 0.18 -0.1 l2.36 0 c0.13334 0 0.23334 0.09334 0.3 0.28 l3.94 13.4 c0.02666 0.08 0.0066602 0.15 -0.06 0.21 s-0.14 0.09 -0.22 0.09 l-1.74 0 z M117.77999999999999 9.48 l-1.5 5.1 l3.02 0 z M132.738 20 c-0.08 0 -0.15334 -0.03 -0.22 -0.09 s-0.11332 -0.12334 -0.13998 -0.19 l-1.98 -4.86 l-2.24 0 l0 4.86 c0 0.18666 -0.09334 0.28 -0.28 0.28 l-1.84 0 c-0.18666 0 -0.28 -0.09334 -0.28 -0.28 l0 -13.4 c0 -0.18666 0.09334 -0.28 0.28 -0.28 l6.36 0 c0.05334 0 0.10668 0.0066602 0.16002 0.02 s0.11 0.03 0.17 0.05 s0.12334 0.06334 0.19 0.13 l1.12 1.12 c0.10666 0.10666 0.17332 0.22666 0.19998 0.36 c0.01334 0.05334 0.02 0.10668 0.02 0.16002 l0 5.08 c0 0.24 -0.07334 0.43334 -0.22 0.58 l-1.18 1.18 l2.02 4.98 c0.02666 0.06666 0.02332 0.13332 -0.01002 0.19998 s-0.11 0.1 -0.23 0.1 l-1.9 0 z M131.778 12.08 c0.04 -0.04 0.05998 -0.08666 0.05998 -0.14 l0 -3.02 c0 -0.04 -0.01334 -0.07334 -0.04 -0.1 l-0.34 -0.32 c-0.06666 -0.04 -0.11332 -0.06 -0.13998 -0.06 l-3.16 0 l0 4.02 l3.16 0 c0.05334 0 0.1 -0.02 0.14 -0.06 z M137.836 20 c-0.18666 0 -0.28 -0.09334 -0.28 -0.28 l0 -13.4 c0 -0.18666 0.09334 -0.28 0.28 -0.28 l7.26 0 c0.18666 0 0.28 0.09334 0.28 0.28 l0 1.84 c0 0.06666 -0.02666 0.13 -0.08 0.19 s-0.12 0.09 -0.2 0.09 l-5.14 0 l0 3.38 l4.06 0 c0.06666 0 0.13 0.02666 0.19 0.08 s0.09 0.12 0.09 0.2 l0 1.84 c0 0.08 -0.03 0.14666 -0.09 0.2 s-0.12334 0.08 -0.19 0.08 l-4.06 0 l0 3.38 l5.14 0 c0.18666 0 0.28 0.09334 0.28 0.28 l0 1.84 c0 0.18666 -0.09334 0.28 -0.28 0.28 l-7.26 0 z M161.772 19.8 c-0.08 0.08 -0.16666 0.13338 -0.26 0.16004 s-0.18 0.04 -0.26 0.04 l-5.16 0 c-0.14666 0 -0.25 -0.01666 -0.31 -0.05 s-0.13 -0.09 -0.21 -0.17 l-1.14 -1.12 c-0.09334 -0.09334 -0.15 -0.17668 -0.17 -0.25002 s-0.03 -0.14334 -0.03 -0.21 l0 -2.04 c0 -0.06666 0.02666 -0.13 0.08 -0.19 s0.12 -0.09 0.2 -0.09 l1.84 0 c0.08 0 0.14666 0.03 0.2 0.09 s0.08 0.12334 0.08 0.19 l0 1.44 l3.58 0 c0.02666 0 0.06 -0.02 0.1 -0.06 l0.34 -0.32 c0.04 -0.02666 0.06 -0.07332 0.06 -0.13998 l0 -2.34 c0 -0.05334 -0.02 -0.1 -0.06 -0.14 l-0.32 -0.32 c-0.04 -0.04 -0.08666 -0.06 -0.14 -0.06 l-4.16 0 c-0.04 0 -0.10334 -0.01334 -0.19 -0.04 s-0.17666 -0.08666 -0.27 -0.18 l-1.14 -1.12 c-0.08 -0.08 -0.13334 -0.16334 -0.16 -0.25 s-0.04 -0.17 -0.04 -0.25 l0 -4.5 c0 -0.06666 0.01334 -0.14666 0.04 -0.24 s0.08666 -0.18668 0.18 -0.28002 l1.12 -1.12 c0.06666 -0.06666 0.13 -0.11666 0.19 -0.15 s0.17 -0.05 0.33 -0.05 l5.16 0 c0.08 0 0.17 0.01666 0.27 0.05 s0.18334 0.08334 0.25 0.15 l1.12 1.12 c0.10666 0.12 0.17 0.21666 0.19 0.29 s0.03 0.15 0.03 0.23 l0 2.1 c0 0.18666 -0.09334 0.28 -0.28 0.28 l-1.84 0 c-0.18666 0 -0.28 -0.09334 -0.28 -0.28 l0 -1.54 l-3.52 0 c-0.05334 0 -0.10668 0.02 -0.16002 0.06 l-0.34 0.32 c-0.04 0.02666 -0.06 0.07332 -0.06 0.13998 l0 2.32 c0 0.05334 0.02 0.1 0.06 0.14 l0.34 0.34 c0.04 0.04 0.09334 0.06 0.16 0.06 l4.06 0 c0.21334 0 0.38668 0.06666 0.52002 0.2 l1.12 1.12 c0.14666 0.16 0.22 0.33334 0.22 0.52 l0 4.48 c0 0.2 -0.07334 0.37334 -0.22 0.52 z M173.89 19.8 c-0.13334 0.13334 -0.36 0.20002 -0.68 0.20002 l-5.06 0 c-0.04 0 -0.10334 -0.01 -0.19 -0.03 s-0.17666 -0.07666 -0.27 -0.17 l-1.14 -1.14 c-0.09334 -0.09334 -0.15 -0.18334 -0.17 -0.27 s-0.03 -0.15 -0.03 -0.19 l0 -10.36 c0 -0.05334 0.01 -0.12334 0.03 -0.21 s0.07666 -0.17666 0.17 -0.27 l1.14 -1.12 c0.08 -0.08 0.15666 -0.13334 0.23 -0.16 s0.17 -0.04 0.29 -0.04 l5.16 0 c0.08 0 0.16666 0.01334 0.26 0.04 s0.18 0.08 0.26 0.16 l1.12 1.12 c0.06666 0.06666 0.12 0.14332 0.16 0.22998 s0.06 0.18332 0.06 0.28998 l0 10.26 c0 0.13334 -0.02 0.23668 -0.06 0.31002 s-0.09334 0.14334 -0.16 0.21 z M172.76999999999998 17.32 c0.04 -0.04 0.05998 -0.08668 0.05998 -0.14002 l0 -8.22 c0 -0.01334 -0.0033398 -0.03334 -0.01 -0.06 s-0.02332 -0.05332 -0.04998 -0.07998 l-0.34 -0.32 c-0.04 -0.04 -0.08 -0.06 -0.12 -0.06 l-3.02 0 c-0.05334 0 -0.1 0.02 -0.14 0.06 l-0.34 0.32 c-0.04 0.04 -0.06 0.08666 -0.06 0.14 l0 8.22 c0 0.05334 0.02 0.1 0.06 0.14 l0.28 0.28 l3.4 0 z M178.888 20 c-0.18666 0 -0.28 -0.09334 -0.28 -0.28 l0 -13.44 c0 -0.06666 0.03 -0.12332 0.09 -0.16998 s0.12334 -0.07 0.19 -0.07 l1.84 0 c0.06666 0 0.13 0.02334 0.19 0.07 s0.09 0.10332 0.09 0.16998 l0 11.32 l5.9 0 c0.18666 0 0.28 0.09334 0.28 0.28 l0 1.84 c0 0.18666 -0.09334 0.28 -0.28 0.28 l-8.02 0 z M197.426 19.8 c-0.06666 0.06666 -0.14664 0.11666 -0.23998 0.15 s-0.18668 0.05 -0.28002 0.05 l-5.16 0 c-0.08 0 -0.17 -0.01666 -0.27 -0.05 s-0.18334 -0.08334 -0.25 -0.15 l-1.14 -1.14 c-0.10666 -0.10666 -0.16666 -0.2 -0.18 -0.28 s-0.02 -0.16 -0.02 -0.24 l0 -11.82 c0 -0.18666 0.09334 -0.28 0.28 -0.28 l1.84 0 c0.18666 0 0.28 0.09334 0.28 0.28 l0 10.86 c0 0.05334 0.02 0.1 0.06 0.14 l0.28 0.28 l3.4 0 l0.28 -0.28 c0.04 -0.04 0.06 -0.08666 0.06 -0.14 l0 -10.86 c0 -0.18666 0.09334 -0.28 0.28 -0.28 l1.84 0 c0.06666 0 0.13 0.02666 0.19 0.08 s0.09 0.12 0.09 0.2 l0 11.82 c0 0.06666 -0.01666 0.15 -0.05 0.25 s-0.09 0.19 -0.17 0.27 z M204.804 20 c-0.06666 0 -0.12334 -0.02336 -0.17 -0.07002 s-0.07 -0.10332 -0.07 -0.16998 l0 -11.32 l-2.8 0 c-0.18666 0 -0.28 -0.09334 -0.28 -0.28 l0 -1.84 c0 -0.18666 0.09334 -0.28 0.28 -0.28 l8.02 0 c0.06666 0 0.13 0.02666 0.19 0.08 s0.09 0.12 0.09 0.2 l0 1.84 c0 0.08 -0.03 0.14666 -0.09 0.2 s-0.12334 0.08 -0.19 0.08 l-2.82 0 l0 11.32 c0 0.16 -0.07334 0.24 -0.22 0.24 l-1.94 0 z M213.122 20 c-0.18666 0 -0.28 -0.09334 -0.28 -0.28 l0 -13.4 c0 -0.18666 0.09334 -0.28 0.28 -0.28 l1.84 0 c0.18666 0 0.28 0.09334 0.28 0.28 l0 13.4 c0 0.18666 -0.09334 0.28 -0.28 0.28 l-1.84 0 z M226.16 19.8 c-0.13334 0.13334 -0.36 0.20002 -0.68 0.20002 l-5.06 0 c-0.04 0 -0.10334 -0.01 -0.19 -0.03 s-0.17666 -0.07666 -0.27 -0.17 l-1.14 -1.14 c-0.09334 -0.09334 -0.15 -0.18334 -0.17 -0.27 s-0.03 -0.15 -0.03 -0.19 l0 -10.36 c0 -0.05334 0.01 -0.12334 0.03 -0.21 s0.07666 -0.17666 0.17 -0.27 l1.14 -1.12 c0.08 -0.08 0.15666 -0.13334 0.23 -0.16 s0.17 -0.04 0.29 -0.04 l5.16 0 c0.08 0 0.16666 0.01334 0.26 0.04 s0.18 0.08 0.26 0.16 l1.12 1.12 c0.06666 0.06666 0.12 0.14332 0.16 0.22998 s0.06 0.18332 0.06 0.28998 l0 10.26 c0 0.13334 -0.02 0.23668 -0.06 0.31002 s-0.09334 0.14334 -0.16 0.21 z M225.04 17.32 c0.04 -0.04 0.05998 -0.08668 0.05998 -0.14002 l0 -8.22 c0 -0.01334 -0.0033398 -0.03334 -0.01 -0.06 s-0.02332 -0.05332 -0.04998 -0.07998 l-0.34 -0.32 c-0.04 -0.04 -0.08 -0.06 -0.12 -0.06 l-3.02 0 c-0.05334 0 -0.1 0.02 -0.14 0.06 l-0.34 0.32 c-0.04 0.04 -0.06 0.08666 -0.06 0.14 l0 8.22 c0 0.05334 0.02 0.1 0.06 0.14 l0.28 0.28 l3.4 0 z M237.15800000000002 20 c-0.08 0 -0.15666 -0.03 -0.23 -0.09 s-0.12334 -0.12334 -0.15 -0.19 l-3.5 -8.64 l0 8.64 c0 0.18666 -0.09334 0.28 -0.28 0.28 l-1.84 0 c-0.18666 0 -0.28 -0.09334 -0.28 -0.28 l0 -13.4 c0 -0.18666 0.09334 -0.28 0.28 -0.28 l2.44 0 c0.13334 0 0.23334 0.09334 0.3 0.28 l3.1 8.02 l0.12 0.56 l0 -8.58 c0 -0.18666 0.09334 -0.28 0.28 -0.28 l1.84 0 c0.18666 0 0.28 0.09334 0.28 0.28 l0 13.4 c0 0.18666 -0.09334 0.28 -0.28 0.28 l-2.08 0 z M250.376 19.8 c-0.08 0.08 -0.16666 0.13338 -0.26 0.16004 s-0.18 0.04 -0.26 0.04 l-5.16 0 c-0.14666 0 -0.25 -0.01666 -0.31 -0.05 s-0.13 -0.09 -0.21 -0.17 l-1.14 -1.12 c-0.09334 -0.09334 -0.15 -0.17668 -0.17 -0.25002 s-0.03 -0.14334 -0.03 -0.21 l0 -2.04 c0 -0.06666 0.02666 -0.13 0.08 -0.19 s0.12 -0.09 0.2 -0.09 l1.84 0 c0.08 0 0.14666 0.03 0.2 0.09 s0.08 0.12334 0.08 0.19 l0 1.44 l3.58 0 c0.02666 0 0.06 -0.02 0.1 -0.06 l0.34 -0.32 c0.04 -0.02666 0.06 -0.07332 0.06 -0.13998 l0 -2.34 c0 -0.05334 -0.02 -0.1 -0.06 -0.14 l-0.32 -0.32 c-0.04 -0.04 -0.08666 -0.06 -0.14 -0.06 l-4.16 0 c-0.04 0 -0.10334 -0.01334 -0.19 -0.04 s-0.17666 -0.08666 -0.27 -0.18 l-1.14 -1.12 c-0.08 -0.08 -0.13334 -0.16334 -0.16 -0.25 s-0.04 -0.17 -0.04 -0.25 l0 -4.5 c0 -0.06666 0.01334 -0.14666 0.04 -0.24 s0.08666 -0.18668 0.18 -0.28002 l1.12 -1.12 c0.06666 -0.06666 0.13 -0.11666 0.19 -0.15 s0.17 -0.05 0.33 -0.05 l5.16 0 c0.08 0 0.17 0.01666 0.27 0.05 s0.18334 0.08334 0.25 0.15 l1.12 1.12 c0.10666 0.12 0.17 0.21666 0.19 0.29 s0.03 0.15 0.03 0.23 l0 2.1 c0 0.18666 -0.09334 0.28 -0.28 0.28 l-1.84 0 c-0.18666 0 -0.28 -0.09334 -0.28 -0.28 l0 -1.54 l-3.52 0 c-0.05334 0 -0.10668 0.02 -0.16002 0.06 l-0.34 0.32 c-0.04 0.02666 -0.06 0.07332 -0.06 0.13998 l0 2.32 c0 0.05334 0.02 0.1 0.06 0.14 l0.34 0.34 c0.04 0.04 0.09334 0.06 0.16 0.06 l4.06 0 c0.21334 0 0.38668 0.06666 0.52002 0.2 l1.12 1.12 c0.14666 0.16 0.22 0.33334 0.22 0.52 l0 4.48 c0 0.2 -0.07334 0.37334 -0.22 0.52 z"></path></g>
			</g>
		</svg>
	