
        <svg xmlns="http://www.w3.org/2000/svg" xmlns:xlink="http://www.w3.org/1999/xlink" version="1.1" width="3162.2997772356" 
        height="440.7073757245545" viewBox="0 0 3162.2997772356 440.7073757245545">
			
			<g transform="scale(8.114988861779993) translate(10, 10)">
				<defs id="SvgjsDefs11472"><linearGradient id="SvgjsLinearGradient11477"><stop id="SvgjsStop11478" stop-color="#ef4136" offset="0"></stop><stop id="SvgjsStop11479" stop-color="#fbb040" offset="1"></stop></linearGradient></defs><g id="SvgjsG11473" featureKey="MI9fam-0" transform="matrix(0.13422971932407454,0,0,0.13422971932407454,-8.868836067662285,-8.797143519055403)" fill="url(#SvgjsLinearGradient11477)"><path xmlns="http://www.w3.org/2000/svg" fill="url(#SvgjsLinearGradient11477)" xmlns:a="http://ns.adobe.com/AdobeSVGViewerExtensions/3.0/" a:adobe-knockout="false" d="M97.525,109.331l2.974-3.296c6.748-6.807,7.151-7.214,11.826-11.134     c2.631-2.064,6.17-4.778,8.888-6.729c17.951-12.38,42.964-21.189,67.617-22.474c3.697-0.192,7.256-0.209,10.661-0.063l0.95,0.046     c8.825,0.689,9.354,0.73,14.713,1.614c9.464,1.888,10.028,1.998,15.655,3.674c-9.965-3.006-22.103-4.361-35.867-3.644     C156.394,69.335,117.094,86.968,97.525,109.331"></path><path xmlns="http://www.w3.org/2000/svg" fill="url(#SvgjsLinearGradient11477)" xmlns:a="http://ns.adobe.com/AdobeSVGViewerExtensions/3.0/" a:adobe-knockout="false" d="M69.501,163.724l2.021-7.443c1.329-3.848,3.1-8.986,4.63-12.758l0.674-1.56     c15.141-34.348,71.952-64.401,127.459-67.293c26.144-1.362,47.364,3.542,61.044,12.691l6.584,4.746     c3.434,2.851,7.979,6.698,11.24,9.745C269.246,88.4,243.377,80.768,210.153,82.5c-60.384,3.147-122.196,36.038-138.062,73.462     C70.973,158.602,70.113,161.189,69.501,163.724"></path><path xmlns="http://www.w3.org/2000/svg" fill="url(#SvgjsLinearGradient11477)" xmlns:a="http://ns.adobe.com/AdobeSVGViewerExtensions/3.0/" a:adobe-knockout="false" d="M68.891,220.21c-0.813-4.66-1.851-10.889-2.375-15.59l-0.419-6.647     c-0.224-6.202,1.058-12.827,3.997-19.76c17.07-40.266,83.574-75.653,148.543-79.04c42.602-2.219,73.965,9.873,85.695,29.813     c6.049,11.404,6.541,12.336,9.576,20.417c-8.801-23.918-42.652-38.976-90.279-36.495     c-66.251,3.452-134.069,39.539-151.476,80.601C68.094,203.082,67.135,212.081,68.891,220.21"></path><path xmlns="http://www.w3.org/2000/svg" fill="url(#SvgjsLinearGradient11477)" xmlns:a="http://ns.adobe.com/AdobeSVGViewerExtensions/3.0/" a:adobe-knockout="false" d="M92.813,271.626c-7.364-10.301-7.965-11.143-11.981-18.586     c-5.477-10.262-5.922-22.479-0.262-35.826c17.182-40.531,84.125-76.154,149.522-79.56c53.184-2.772,88.967,16.613,91.234,45.75     c0.137,3.502,0.402,8.168,0.379,11.67c-0.17,3.192-0.287,7.455-0.592,10.637c3.164-31.788-32.625-53.73-87.91-50.85     c-63.073,3.286-127.639,37.642-144.21,76.733C82.489,246.935,84.344,260.728,92.813,271.626"></path><path xmlns="http://www.w3.org/2000/svg" fill="url(#SvgjsLinearGradient11477)" xmlns:a="http://ns.adobe.com/AdobeSVGViewerExtensions/3.0/" a:adobe-knockout="false" d="M138.141,308.339l-1.272-0.625c-9.498-5.146-11.208-6.073-19.119-11.712     c-14.395-10.624-19.502-26.277-11.865-44.292c14.988-35.355,73.379-66.426,130.423-69.398     c56.316-2.934,90.262,22.611,76.697,57.281l-1.432,3.529c-5.064,10.84-5.369,11.489-9.361,17.986     c1.588-2.523,2.938-5.081,4.035-7.666c13.582-32.041-17.316-55.833-69.018-53.139c-51.698,2.695-104.621,30.854-118.205,62.897     C110.784,282.642,118.919,299.047,138.141,308.339"></path><path xmlns="http://www.w3.org/2000/svg" fill="url(#SvgjsLinearGradient11477)" xmlns:a="http://ns.adobe.com/AdobeSVGViewerExtensions/3.0/" a:adobe-knockout="false" d="M203.519,320.49c33.849-1.764,68.495-20.201,77.39-41.179     c8.895-20.979-11.336-36.553-45.184-34.789c-33.849,1.764-68.497,20.201-77.391,41.179     C149.441,306.679,169.671,322.255,203.519,320.49c-0.983,0.257-1.973,0.411-2.967,0.463c-8.32,0.227-8.646,0.237-13.268,0.01     c-2.216-0.176-5.176-0.358-7.385-0.594c-30.642-3.323-47.16-20.407-37.89-42.273c10.914-25.743,53.429-48.367,94.965-50.532     c41.535-2.164,66.359,16.951,55.445,42.693c-3.455,8.148-10.078,15.985-18.83,22.959c-2.738,2.07-6.428,4.782-9.254,6.727     c-6.793,4.263-6.793,4.263-10.469,6.225c-6.666,3.362-6.666,3.362-10.117,4.828c-6.504,2.603-6.504,2.603-10.041,3.775     c-3.322,1.016-9.504,2.903-10.275,2.903c-6.993,1.504-7.267,1.562-10.89,2.09c-7.553,0.933-7.848,0.971-11.992,1.189     C201.546,320.901,202.535,320.747,203.519,320.49"></path><path xmlns="http://www.w3.org/2000/svg" fill="url(#SvgjsLinearGradient11477)" xmlns:a="http://ns.adobe.com/AdobeSVGViewerExtensions/3.0/" a:adobe-knockout="false" d="M218.023,308.125c11.248-0.586,22.766-6.713,25.721-13.686     s-3.768-12.148-15.018-11.562c-11.25,0.587-22.767,6.714-25.722,13.687C200.049,303.535,206.772,308.712,218.023,308.125     c-1.771,2.74-3.607,5.031-5.493,6.887c-20.602,1.075-32.915-8.405-27.502-21.174c5.414-12.769,26.502-23.991,47.104-25.065     c20.602-1.072,32.916,8.407,27.502,21.176c-5.412,12.769-26.502,23.99-47.104,25.063     C214.416,313.156,216.253,310.865,218.023,308.125"></path></g><g id="SvgjsG11474" featureKey="EI8VXn-0" transform="matrix(1.0489310322728524,0,0,1.0489310322728524,52.53149645478415,3.9162013132576163)" fill="#ffffff"><path d="M7.7 13.9 l-3.7 0 l0 3.9 l3.7 0 c1 0 1.6 -0.6 1.6 -1.4 l0 -1.1 c0 -0.8 -0.6 -1.4 -1.6 -1.4 z M9.5 12.5 l0 0.2 s2.4 0.3 2.4 2.9 l0 1.4 c0 1.6 -1.4 3 -3.4 3 l-7.1 0 l0 -14 l6.5 0 c2 0 3.4 1.4 3.4 3 l0 1.3 c0 1.7 -1.8 2.2 -1.8 2.2 z M7.1 8.2 l-3.1 0 l0 3.5 l3.1 0 c1 0 1.6 -0.6 1.6 -1.4 l0 -0.7 c0 -0.8 -0.6 -1.4 -1.6 -1.4 z M23.78 6 l2.6 0 l0 11.1 c0 1.8 -1.3 3.1 -3.3 3.1 l-4 0 c-2 0 -3.3 -1.3 -3.3 -3.1 l0 -11.1 l2.6 0 l0 10.7 c0 0.7 0.6 1.3 1.4 1.3 l2.6 0 c0.8 0 1.4 -0.6 1.4 -1.3 l0 -10.7 z M41.26 11.7 c0 2.5 -2.3 2.9 -2.3 2.9 l2.7 4.3 l0 1.1 l-2.6 0 l-2.7 -5.2 l-2.8 0 l0 5.2 l-2.6 0 l0 -14 l7 0 c2 0 3.3 1.3 3.3 3.1 l0 2.6 z M33.56 8.2 l0 4.4 l3.7 0 c0.8 0 1.4 -0.6 1.4 -1.3 l0 -1.8 c0 -0.7 -0.6 -1.3 -1.4 -1.3 l-3.7 0 z M50.839999999999996 8.2 l0 11.8 l-2.6 0 l0 -11.8 l-4 0 l0 -2.2 l10.6 0 l0 1.5 l-0.7 0.7 l-3.3 0 z M74.10000000000001 17 c0 1.6 -1.4 3 -3.4 3 l-6.7 0 l0 -2.2 l5.9 0 c1 0 1.6 -0.6 1.6 -1.4 l0 -0.7 c0 -0.8 -0.3 -1.2 -0.8 -1.3 l-4.1 -0.9 c-1.4 -0.3 -2.5 -1.4 -2.5 -3.1 l0 -1.4 c0 -1.6 1.4 -3 3.4 -3 l6.2 0 l0 1.5 l-0.7 0.7 l-4.7 0 c-1 0 -1.6 0.6 -1.6 1.4 l0 0.5 c0 0.8 0.3 1.1 0.8 1.2 l4.1 0.9 c1.4 0.3 2.5 1.4 2.5 3.2 l0 1.6 z M85.28 5.800000000000001 c2 0 3.3 1.3 3.3 3.1 l0 8.2 c0 1.8 -1.3 3.1 -3.3 3.1 l-4.4 0 c-2 0 -3.3 -1.3 -3.3 -3.1 l0 -8.2 c0 -1.8 1.3 -3.1 3.3 -3.1 l4.4 0 z M81.58 8 c-0.8 0 -1.4 0.6 -1.4 1.3 l0 7.4 c0 0.7 0.6 1.3 1.4 1.3 l3 0 c0.8 0 1.4 -0.6 1.4 -1.3 l0 -7.4 c0 -0.7 -0.6 -1.3 -1.4 -1.3 l-3 0 z M95.36 20 l-2.6 0 l0 -14 l9.6 0 l0 1.5 l-0.7 0.7 l-6.3 0 l0 4.3 l5 0 l0 2.2 l-5 0 l0 5.3 z M111.14 8.2 l0 11.8 l-2.6 0 l0 -11.8 l-4 0 l0 -2.2 l10.6 0 l0 1.5 l-0.7 0.7 l-3.3 0 z M127.92 8.2 l2.4 8.3 l0.2 0 l1.9 -10.5 l2.9 0 l0 1.1 l-3.1 12.9 l-3.2 0 l-2.5 -8.5 l-0.2 0 l-2.5 8.5 l-3.2 0 l-3.1 -12.9 l0 -1.1 l2.9 0 l1.9 10.5 l0.2 0 l2.4 -8.3 l3 0 z M145.1 6 l4.3 12.9 l0 1.1 l-2.6 0 l-0.9 -3 l-5 0 l-0.9 3 l-2.6 0 l0 -1.1 l4.3 -12.9 l3.4 0 z M143.29999999999998 8.8 l-1.8 6 l3.8 0 l-1.8 -6 l-0.2 0 z M163.17999999999998 11.7 c0 2.5 -2.3 2.9 -2.3 2.9 l2.7 4.3 l0 1.1 l-2.6 0 l-2.7 -5.2 l-2.8 0 l0 5.2 l-2.6 0 l0 -14 l7 0 c2 0 3.3 1.3 3.3 3.1 l0 2.6 z M155.48 8.2 l0 4.4 l3.7 0 c0.8 0 1.4 -0.6 1.4 -1.3 l0 -1.8 c0 -0.7 -0.6 -1.3 -1.4 -1.3 l-3.7 0 z M167.35999999999999 20 l0 -14 l9.6 0 l0 1.5 l-0.7 0.7 l-6.3 0 l0 3.6 l5.1 0 l0 2.2 l-5.1 0 l0 3.8 l7 0 l0 2.2 l-9.6 0 z M196.72 17 c0 1.6 -1.4 3 -3.4 3 l-6.7 0 l0 -2.2 l5.9 0 c1 0 1.6 -0.6 1.6 -1.4 l0 -0.7 c0 -0.8 -0.3 -1.2 -0.8 -1.3 l-4.1 -0.9 c-1.4 -0.3 -2.5 -1.4 -2.5 -3.1 l0 -1.4 c0 -1.6 1.4 -3 3.4 -3 l6.2 0 l0 1.5 l-0.7 0.7 l-4.7 0 c-1 0 -1.6 0.6 -1.6 1.4 l0 0.5 c0 0.8 0.3 1.1 0.8 1.2 l4.1 0.9 c1.4 0.3 2.5 1.4 2.5 3.2 l0 1.6 z M207.89999999999998 5.800000000000001 c2 0 3.3 1.3 3.3 3.1 l0 8.2 c0 1.8 -1.3 3.1 -3.3 3.1 l-4.4 0 c-2 0 -3.3 -1.3 -3.3 -3.1 l0 -8.2 c0 -1.8 1.3 -3.1 3.3 -3.1 l4.4 0 z M204.2 8 c-0.8 0 -1.4 0.6 -1.4 1.3 l0 7.4 c0 0.7 0.6 1.3 1.4 1.3 l3 0 c0.8 0 1.4 -0.6 1.4 -1.3 l0 -7.4 c0 -0.7 -0.6 -1.3 -1.4 -1.3 l-3 0 z M215.38 6 l2.6 0 l0 11.8 l6.8 0 l0 2.2 l-9.4 0 l0 -14 z M236.06 6 l2.6 0 l0 11.1 c0 1.8 -1.3 3.1 -3.3 3.1 l-4 0 c-2 0 -3.3 -1.3 -3.3 -3.1 l0 -11.1 l2.6 0 l0 10.7 c0 0.7 0.6 1.3 1.4 1.3 l2.6 0 c0.8 0 1.4 -0.6 1.4 -1.3 l0 -10.7 z M248.64000000000001 8.2 l0 11.8 l-2.6 0 l0 -11.8 l-4 0 l0 -2.2 l10.6 0 l0 1.5 l-0.7 0.7 l-3.3 0 z M258.62 20 l-2.6 0 l0 -14 l2.6 0 l0 14 z M270.5 5.800000000000001 c2 0 3.3 1.3 3.3 3.1 l0 8.2 c0 1.8 -1.3 3.1 -3.3 3.1 l-4.4 0 c-2 0 -3.3 -1.3 -3.3 -3.1 l0 -8.2 c0 -1.8 1.3 -3.1 3.3 -3.1 l4.4 0 z M266.8 8 c-0.8 0 -1.4 0.6 -1.4 1.3 l0 7.4 c0 0.7 0.6 1.3 1.4 1.3 l3 0 c0.8 0 1.4 -0.6 1.4 -1.3 l0 -7.4 c0 -0.7 -0.6 -1.3 -1.4 -1.3 l-3 0 z M285.88 15.6 l0.2 0 l-0.3 -3.6 l0 -6 l2.6 0 l0 14 l-2.7 0 l-5.2 -9.6 l-0.2 0 l0.3 3.6 l0 6 l-2.6 0 l0 -14 l2.7 0 z M302.36 17 c0 1.6 -1.4 3 -3.4 3 l-6.7 0 l0 -2.2 l5.9 0 c1 0 1.6 -0.6 1.6 -1.4 l0 -0.7 c0 -0.8 -0.3 -1.2 -0.8 -1.3 l-4.1 -0.9 c-1.4 -0.3 -2.5 -1.4 -2.5 -3.1 l0 -1.4 c0 -1.6 1.4 -3 3.4 -3 l6.2 0 l0 1.5 l-0.7 0.7 l-4.7 0 c-1 0 -1.6 0.6 -1.6 1.4 l0 0.5 c0 0.8 0.3 1.1 0.8 1.2 l4.1 0.9 c1.4 0.3 2.5 1.4 2.5 3.2 l0 1.6 z"></path></g>
			</g>
		</svg>
	