<svg width="2560" height="1440" viewBox="0 0 2560 1440" fill="none" xmlns="http://www.w3.org/2000/svg">
<g clip-path="url(#clip0_1_3)">
<rect x="2480.5" y="0.5" width="79" height="1439" stroke="#1A1A1A" stroke-opacity="0.75"/>
<rect x="2320.5" y="0.5" width="79" height="1439" stroke="#1A1A1A" stroke-opacity="0.75"/>
<rect x="2160.5" y="0.5" width="79" height="1439" stroke="#1A1A1A" stroke-opacity="0.75"/>
<rect x="2000.5" y="0.5" width="79" height="1439" stroke="#1A1A1A" stroke-opacity="0.75"/>
<rect x="1840.5" y="0.5" width="79" height="1439" stroke="#1A1A1A" stroke-opacity="0.75"/>
<rect x="1680.5" y="0.5" width="79" height="1439" stroke="#1A1A1A" stroke-opacity="0.75"/>
<rect x="1520.5" y="0.5" width="79" height="1439" stroke="#1A1A1A" stroke-opacity="0.75"/>
<rect x="1360.5" y="0.5" width="79" height="1439" stroke="#1A1A1A" stroke-opacity="0.75"/>
<rect x="1200.5" y="0.5" width="79" height="1439" stroke="#1A1A1A" stroke-opacity="0.75"/>
<rect x="1040.5" y="0.5" width="79" height="1439" stroke="#1A1A1A" stroke-opacity="0.75"/>
<rect x="880.5" y="0.5" width="79" height="1439" stroke="#1A1A1A" stroke-opacity="0.75"/>
<rect x="720.5" y="0.5" width="79" height="1439" stroke="#1A1A1A" stroke-opacity="0.75"/>
<rect x="560.5" y="0.5" width="79" height="1439" stroke="#1A1A1A" stroke-opacity="0.75"/>
<rect x="400.5" y="0.5" width="79" height="1439" stroke="#1A1A1A" stroke-opacity="0.75"/>
<rect x="240.5" y="0.5" width="79" height="1439" stroke="#1A1A1A" stroke-opacity="0.75"/>
<rect x="80.5" y="0.5" width="79" height="1439" stroke="#1A1A1A" stroke-opacity="0.75"/>
<rect x="0.5" y="0.5" width="2559" height="79" stroke="#1A1A1A" stroke-opacity="0.75"/>
<rect x="0.5" y="160.5" width="2559" height="79" stroke="#1A1A1A" stroke-opacity="0.75"/>
<rect x="0.5" y="320.5" width="2559" height="79" stroke="#1A1A1A" stroke-opacity="0.75"/>
<rect x="0.5" y="480.5" width="2559" height="79" stroke="#1A1A1A" stroke-opacity="0.75"/>
<rect x="0.5" y="640.5" width="2559" height="79" stroke="#1A1A1A" stroke-opacity="0.75"/>
<rect x="0.5" y="800.5" width="2559" height="79" stroke="#1A1A1A" stroke-opacity="0.75"/>
<rect x="0.5" y="960.5" width="2559" height="79" stroke="#1A1A1A" stroke-opacity="0.75"/>
<rect x="0.5" y="1120.5" width="2559" height="79" stroke="#1A1A1A" stroke-opacity="0.75"/>
<rect x="0.5" y="1280.5" width="2559" height="79" stroke="#1A1A1A" stroke-opacity="0.75"/>
<rect x="0.5" y="1359.5" width="2559" height="80" stroke="#1A1A1A" stroke-opacity="0.75"/>
<g filter="url(#filter0_f_1_3)">
<ellipse cx="-40" cy="55.5" rx="369" ry="344.5" fill="#7AFFA6" fill-opacity="0.2"/>
</g>
<g filter="url(#filter1_f_1_3)">
<ellipse cx="2529" cy="0.5" rx="369" ry="344.5" fill="#7AFFA6" fill-opacity="0.2"/>
</g>
</g>
<defs>
<filter id="filter0_f_1_3" x="-842.5" y="-722.5" width="1605" height="1556" filterUnits="userSpaceOnUse" color-interpolation-filters="sRGB">
<feFlood flood-opacity="0" result="BackgroundImageFix"/>
<feBlend mode="normal" in="SourceGraphic" in2="BackgroundImageFix" result="shape"/>
<feGaussianBlur stdDeviation="216.75" result="effect1_foregroundBlur_1_3"/>
</filter>
<filter id="filter1_f_1_3" x="1726.5" y="-777.5" width="1605" height="1556" filterUnits="userSpaceOnUse" color-interpolation-filters="sRGB">
<feFlood flood-opacity="0" result="BackgroundImageFix"/>
<feBlend mode="normal" in="SourceGraphic" in2="BackgroundImageFix" result="shape"/>
<feGaussianBlur stdDeviation="216.75" result="effect1_foregroundBlur_1_3"/>
</filter>
<clipPath id="clip0_1_3">
<rect width="2560" height="1440" fill="white"/>
</clipPath>
</defs>
</svg>
