<svg xmlns="http://www.w3.org/2000/svg" xmlns:xlink="http://www.w3.org/1999/xlink" width="1000" zoomAndPan="magnify" viewBox="0 0 750 749.999995" height="1000" preserveAspectRatio="xMidYMid meet" version="1.0"><defs><clipPath id="f5e66afac7"><path d="M 280.667969 304 L 377 304 L 377 468.257812 L 280.667969 468.257812 Z M 280.667969 304 " clip-rule="nonzero"/></clipPath><clipPath id="49c0ee811e"><path d="M 281 249.378906 L 471 249.378906 L 471 359 L 281 359 Z M 281 249.378906 " clip-rule="nonzero"/></clipPath><clipPath id="d004f57ff6"><path d="M 375 304 L 471 304 L 471 468.257812 L 375 468.257812 Z M 375 304 " clip-rule="nonzero"/></clipPath><clipPath id="31c6b05ffc"><path d="M 174.027344 384 L 270 384 L 270 548.890625 L 174.027344 548.890625 Z M 174.027344 384 " clip-rule="nonzero"/></clipPath><clipPath id="67a4f1fa14"><path d="M 174.027344 330.011719 L 364 330.011719 L 364 440 L 174.027344 440 Z M 174.027344 330.011719 " clip-rule="nonzero"/></clipPath><clipPath id="99d9eefdef"><path d="M 269 384 L 364.664062 384 L 364.664062 548.890625 L 269 548.890625 Z M 269 384 " clip-rule="nonzero"/></clipPath><clipPath id="6c438a03a0"><path d="M 385.695312 382 L 482 382 L 482 546.742188 L 385.695312 546.742188 Z M 385.695312 382 " clip-rule="nonzero"/></clipPath><clipPath id="cac93df930"><path d="M 386 327.863281 L 576 327.863281 L 576 438 L 386 438 Z M 386 327.863281 " clip-rule="nonzero"/></clipPath><clipPath id="c3e701090c"><path d="M 480 382 L 576 382 L 576 546.742188 L 480 546.742188 Z M 480 382 " clip-rule="nonzero"/></clipPath><clipPath id="5ea82e45b5"><path d="M 278.519531 194 L 374 194 L 374 358.589844 L 278.519531 358.589844 Z M 278.519531 194 " clip-rule="nonzero"/></clipPath><clipPath id="92e13067fc"><path d="M 279 139.710938 L 469 139.710938 L 469 250 L 279 250 Z M 279 139.710938 " clip-rule="nonzero"/></clipPath><clipPath id="f8f821afc1"><path d="M 373 194 L 469 194 L 469 358.589844 L 373 358.589844 Z M 373 194 " clip-rule="nonzero"/></clipPath><clipPath id="4344e9eba1"><path d="M 174.027344 255 L 270 255 L 270 420.207031 L 174.027344 420.207031 Z M 174.027344 255 " clip-rule="nonzero"/></clipPath><clipPath id="afec1be4e4"><path d="M 174.027344 201.328125 L 364 201.328125 L 364 311 L 174.027344 311 Z M 174.027344 201.328125 " clip-rule="nonzero"/></clipPath><clipPath id="0c3028b5c3"><path d="M 269 256 L 364.664062 256 L 364.664062 420.207031 L 269 420.207031 Z M 269 256 " clip-rule="nonzero"/></clipPath><clipPath id="07f0516fe7"><path d="M 280.667969 445 L 377 445 L 377 609.828125 L 280.667969 609.828125 Z M 280.667969 445 " clip-rule="nonzero"/></clipPath><clipPath id="af20314509"><path d="M 281 390.949219 L 471 390.949219 L 471 501 L 281 501 Z M 281 390.949219 " clip-rule="nonzero"/></clipPath><clipPath id="45f0c9aff8"><path d="M 375 445 L 471 445 L 471 609.828125 L 375 609.828125 Z M 375 445 " clip-rule="nonzero"/></clipPath><clipPath id="81d44e9c23"><path d="M 385.695312 255 L 482 255 L 482 420.207031 L 385.695312 420.207031 Z M 385.695312 255 " clip-rule="nonzero"/></clipPath><clipPath id="ac0bb8e1fc"><path d="M 386 201.328125 L 576 201.328125 L 576 311 L 386 311 Z M 386 201.328125 " clip-rule="nonzero"/></clipPath><clipPath id="e57cd67e6f"><path d="M 480 256 L 576 256 L 576 420.207031 L 480 420.207031 Z M 480 256 " clip-rule="nonzero"/></clipPath><clipPath id="5de0654e80"><path d="M 280.667969 319 L 377 319 L 377 483.304688 L 280.667969 483.304688 Z M 280.667969 319 " clip-rule="nonzero"/></clipPath><clipPath id="da85168ae8"><path d="M 281 264.425781 L 471 264.425781 L 471 374 L 281 374 Z M 281 264.425781 " clip-rule="nonzero"/></clipPath><clipPath id="ec7932d27c"><path d="M 375 319 L 471 319 L 471 483.304688 L 375 483.304688 Z M 375 319 " clip-rule="nonzero"/></clipPath></defs><g clip-path="url(#f5e66afac7)"><path fill="#9a98ff" d="M 375.824219 468.4375 L 376.082031 468.578125 L 375.824219 468.734375 L 281.160156 414.070312 L 280.851562 413.886719 L 280.851562 304.226562 L 281.160156 304.046875 L 375.824219 358.707031 L 376.082031 358.554688 L 376.117188 358.59375 L 375.824219 358.761719 Z M 375.824219 468.4375 " fill-opacity="1" fill-rule="nonzero"/></g><g clip-path="url(#49c0ee811e)"><path fill="#8c52ff" d="M 470.496094 304.046875 L 376.082031 358.554688 L 375.824219 358.707031 L 281.160156 304.046875 L 375.824219 249.378906 Z M 470.496094 304.046875 " fill-opacity="1" fill-rule="nonzero"/></g><g clip-path="url(#d004f57ff6)"><path fill="#5e17eb" d="M 470.804688 304.226562 L 470.804688 413.886719 L 470.496094 414.070312 L 376.082031 468.578125 L 375.824219 468.4375 L 375.824219 358.761719 L 376.117188 358.59375 L 470.546875 304.070312 Z M 470.804688 304.226562 " fill-opacity="1" fill-rule="nonzero"/></g><g clip-path="url(#31c6b05ffc)"><path fill="#9a98ff" d="M 269.179688 549.066406 L 269.4375 549.207031 L 269.179688 549.363281 L 174.519531 494.699219 L 174.210938 494.519531 L 174.210938 384.855469 L 174.519531 384.675781 L 269.179688 439.339844 L 269.4375 439.183594 L 269.476562 439.222656 L 269.179688 439.390625 Z M 269.179688 549.066406 " fill-opacity="1" fill-rule="nonzero"/></g><g clip-path="url(#67a4f1fa14)"><path fill="#8c52ff" d="M 363.855469 384.675781 L 269.4375 439.183594 L 269.179688 439.339844 L 174.519531 384.675781 L 269.179688 330.011719 Z M 363.855469 384.675781 " fill-opacity="1" fill-rule="nonzero"/></g><g clip-path="url(#99d9eefdef)"><path fill="#5e17eb" d="M 364.164062 384.855469 L 364.164062 494.519531 L 363.855469 494.699219 L 269.4375 549.207031 L 269.179688 549.066406 L 269.179688 439.390625 L 269.476562 439.222656 L 363.90625 384.703125 Z M 364.164062 384.855469 " fill-opacity="1" fill-rule="nonzero"/></g><g clip-path="url(#6c438a03a0)"><path fill="#9a98ff" d="M 480.851562 546.917969 L 481.109375 547.058594 L 480.851562 547.214844 L 386.191406 492.550781 L 385.882812 492.371094 L 385.882812 382.707031 L 386.191406 382.527344 L 480.851562 437.191406 L 481.109375 437.035156 L 481.148438 437.074219 L 480.851562 437.242188 Z M 480.851562 546.917969 " fill-opacity="1" fill-rule="nonzero"/></g><g clip-path="url(#cac93df930)"><path fill="#8c52ff" d="M 575.523438 382.527344 L 481.109375 437.035156 L 480.851562 437.191406 L 386.191406 382.527344 L 480.851562 327.863281 Z M 575.523438 382.527344 " fill-opacity="1" fill-rule="nonzero"/></g><g clip-path="url(#c3e701090c)"><path fill="#5e17eb" d="M 575.832031 382.707031 L 575.832031 492.371094 L 575.523438 492.550781 L 481.109375 547.058594 L 480.851562 546.917969 L 480.851562 437.242188 L 481.148438 437.074219 L 575.578125 382.550781 Z M 575.832031 382.707031 " fill-opacity="1" fill-rule="nonzero"/></g><g clip-path="url(#5ea82e45b5)"><path fill="#9a98ff" d="M 373.671875 358.765625 L 373.929688 358.910156 L 373.671875 359.0625 L 279.011719 304.398438 L 278.703125 304.21875 L 278.703125 194.554688 L 279.011719 194.375 L 373.671875 249.039062 L 373.929688 248.882812 L 373.96875 248.921875 L 373.671875 249.089844 Z M 373.671875 358.765625 " fill-opacity="1" fill-rule="nonzero"/></g><g clip-path="url(#92e13067fc)"><path fill="#8c52ff" d="M 468.347656 194.375 L 373.929688 248.882812 L 373.671875 249.039062 L 279.011719 194.375 L 373.671875 139.710938 Z M 468.347656 194.375 " fill-opacity="1" fill-rule="nonzero"/></g><g clip-path="url(#f8f821afc1)"><path fill="#5e17eb" d="M 468.65625 194.554688 L 468.65625 304.21875 L 468.347656 304.398438 L 373.929688 358.910156 L 373.671875 358.765625 L 373.671875 249.089844 L 373.96875 248.921875 L 468.398438 194.402344 Z M 468.65625 194.554688 " fill-opacity="1" fill-rule="nonzero"/></g><g clip-path="url(#4344e9eba1)"><path fill="#9a98ff" d="M 269.179688 420.382812 L 269.4375 420.527344 L 269.179688 420.679688 L 174.519531 366.015625 L 174.210938 365.835938 L 174.210938 256.171875 L 174.519531 255.992188 L 269.179688 310.65625 L 269.4375 310.503906 L 269.476562 310.542969 L 269.179688 310.707031 Z M 269.179688 420.382812 " fill-opacity="1" fill-rule="nonzero"/></g><g clip-path="url(#afec1be4e4)"><path fill="#8c52ff" d="M 363.855469 255.992188 L 269.4375 310.503906 L 269.179688 310.65625 L 174.519531 255.992188 L 269.179688 201.328125 Z M 363.855469 255.992188 " fill-opacity="1" fill-rule="nonzero"/></g><g clip-path="url(#0c3028b5c3)"><path fill="#5e17eb" d="M 364.164062 256.171875 L 364.164062 365.835938 L 363.855469 366.015625 L 269.4375 420.527344 L 269.179688 420.382812 L 269.179688 310.707031 L 269.476562 310.542969 L 363.90625 256.019531 Z M 364.164062 256.171875 " fill-opacity="1" fill-rule="nonzero"/></g><g clip-path="url(#07f0516fe7)"><path fill="#9a98ff" d="M 375.824219 610.003906 L 376.082031 610.148438 L 375.824219 610.300781 L 281.160156 555.636719 L 280.851562 555.457031 L 280.851562 445.792969 L 281.160156 445.613281 L 375.824219 500.277344 L 376.082031 500.121094 L 376.117188 500.164062 L 375.824219 500.328125 Z M 375.824219 610.003906 " fill-opacity="1" fill-rule="nonzero"/></g><g clip-path="url(#af20314509)"><path fill="#8c52ff" d="M 470.496094 445.613281 L 376.082031 500.121094 L 375.824219 500.277344 L 281.160156 445.613281 L 375.824219 390.949219 Z M 470.496094 445.613281 " fill-opacity="1" fill-rule="nonzero"/></g><g clip-path="url(#45f0c9aff8)"><path fill="#5e17eb" d="M 470.804688 445.792969 L 470.804688 555.457031 L 470.496094 555.636719 L 376.082031 610.148438 L 375.824219 610.003906 L 375.824219 500.328125 L 376.117188 500.164062 L 470.546875 445.640625 Z M 470.804688 445.792969 " fill-opacity="1" fill-rule="nonzero"/></g><g clip-path="url(#81d44e9c23)"><path fill="#9a98ff" d="M 480.851562 420.382812 L 481.109375 420.527344 L 480.851562 420.679688 L 386.191406 366.015625 L 385.882812 365.835938 L 385.882812 256.171875 L 386.191406 255.992188 L 480.851562 310.65625 L 481.109375 310.503906 L 481.148438 310.542969 L 480.851562 310.707031 Z M 480.851562 420.382812 " fill-opacity="1" fill-rule="nonzero"/></g><g clip-path="url(#ac0bb8e1fc)"><path fill="#8c52ff" d="M 575.523438 255.992188 L 481.109375 310.503906 L 480.851562 310.65625 L 386.191406 255.992188 L 480.851562 201.328125 Z M 575.523438 255.992188 " fill-opacity="1" fill-rule="nonzero"/></g><g clip-path="url(#e57cd67e6f)"><path fill="#5e17eb" d="M 575.832031 256.171875 L 575.832031 365.835938 L 575.523438 366.015625 L 481.109375 420.527344 L 480.851562 420.382812 L 480.851562 310.707031 L 481.148438 310.542969 L 575.578125 256.019531 Z M 575.832031 256.171875 " fill-opacity="1" fill-rule="nonzero"/></g><g clip-path="url(#5de0654e80)"><path fill="#9a98ff" d="M 375.824219 483.480469 L 376.082031 483.625 L 375.824219 483.777344 L 281.160156 429.113281 L 280.851562 428.933594 L 280.851562 319.269531 L 281.160156 319.089844 L 375.824219 373.753906 L 376.082031 373.597656 L 376.117188 373.636719 L 375.824219 373.804688 Z M 375.824219 483.480469 " fill-opacity="1" fill-rule="nonzero"/></g><g clip-path="url(#da85168ae8)"><path fill="#8c52ff" d="M 470.496094 319.089844 L 376.082031 373.597656 L 375.824219 373.753906 L 281.160156 319.089844 L 375.824219 264.425781 Z M 470.496094 319.089844 " fill-opacity="1" fill-rule="nonzero"/></g><g clip-path="url(#ec7932d27c)"><path fill="#5e17eb" d="M 470.804688 319.269531 L 470.804688 428.933594 L 470.496094 429.113281 L 376.082031 483.625 L 375.824219 483.480469 L 375.824219 373.804688 L 376.117188 373.636719 L 470.546875 319.117188 Z M 470.804688 319.269531 " fill-opacity="1" fill-rule="nonzero"/></g></svg>