<svg width="393" height="852" viewBox="0 0 393 852" fill="none" xmlns="http://www.w3.org/2000/svg">
<g clip-path="url(#clip0_10_95)">
<g filter="url(#filter0_f_10_95)">
<ellipse cx="-37" cy="-33" rx="134" ry="125" fill="#7AFFA6" fill-opacity="0.2"/>
</g>
<g filter="url(#filter1_f_10_95)">
<ellipse cx="439" cy="902" rx="134" ry="125" fill="#7AFFA6" fill-opacity="0.2"/>
</g>
<rect x="341.5" y="-5.5" width="48" height="880" stroke="#1D1D1D" stroke-opacity="0.45"/>
<rect x="243.5" y="-5.5" width="48" height="880" stroke="#1D1D1D" stroke-opacity="0.45"/>
<rect x="146.5" y="-5.5" width="48" height="880" stroke="#1D1D1D" stroke-opacity="0.45"/>
<rect x="48.5" y="-5.5" width="48" height="880" stroke="#1D1D1D" stroke-opacity="0.45"/>
<rect x="-0.5" y="-5.5" width="1565" height="48" stroke="#1D1D1D" stroke-opacity="0.45"/>
<rect x="-0.5" y="92.5" width="1565" height="48" stroke="#1D1D1D" stroke-opacity="0.45"/>
<rect x="-0.5" y="190.5" width="1565" height="48" stroke="#1D1D1D" stroke-opacity="0.45"/>
<rect x="-0.5" y="287.5" width="1565" height="48" stroke="#1D1D1D" stroke-opacity="0.45"/>
<rect x="-0.5" y="386.5" width="1565" height="48" stroke="#1D1D1D" stroke-opacity="0.45"/>
<rect x="-0.5" y="484.5" width="1565" height="48" stroke="#1D1D1D" stroke-opacity="0.45"/>
<rect x="-0.5" y="582.5" width="1565" height="47" stroke="#1D1D1D" stroke-opacity="0.45"/>
<rect x="-0.5" y="679.5" width="1565" height="48" stroke="#1D1D1D" stroke-opacity="0.45"/>
<rect x="-0.5" y="777.5" width="1565" height="48" stroke="#1D1D1D" stroke-opacity="0.45"/>
<rect x="-0.5" y="825.5" width="1565" height="49" stroke="#1D1D1D" stroke-opacity="0.45"/>
</g>
<defs>
<filter id="filter0_f_10_95" x="-471.9" y="-458.9" width="869.8" height="851.8" filterUnits="userSpaceOnUse" color-interpolation-filters="sRGB">
<feFlood flood-opacity="0" result="BackgroundImageFix"/>
<feBlend mode="normal" in="SourceGraphic" in2="BackgroundImageFix" result="shape"/>
<feGaussianBlur stdDeviation="150.45" result="effect1_foregroundBlur_10_95"/>
</filter>
<filter id="filter1_f_10_95" x="4.10001" y="476.1" width="869.8" height="851.8" filterUnits="userSpaceOnUse" color-interpolation-filters="sRGB">
<feFlood flood-opacity="0" result="BackgroundImageFix"/>
<feBlend mode="normal" in="SourceGraphic" in2="BackgroundImageFix" result="shape"/>
<feGaussianBlur stdDeviation="150.45" result="effect1_foregroundBlur_10_95"/>
</filter>
<clipPath id="clip0_10_95">
<rect width="393" height="852" fill="white"/>
</clipPath>
</defs>
</svg>
